<svg width="55" height="39" viewBox="0 0 55 39" fill="none" xmlns="http://www.w3.org/2000/svg">
<path fill-rule="evenodd" clip-rule="evenodd" d="M11.0867 0.857345C10.1879 1.74919 10.1597 1.78426 10.21 1.94638C10.2206 1.98056 10.3716 2.15221 10.5455 2.32779L10.8618 2.64703L10.8895 5.04133C10.9048 6.35819 10.9254 8.41729 10.9353 9.6171L10.9533 11.7986L10.7953 11.8563C10.7085 11.888 10.38 12.011 10.0655 12.1297C9.75098 12.2483 9.03034 12.501 8.46414 12.6912C7.11004 13.1462 7.05512 13.1747 6.68749 13.6142C6.24844 14.139 5.98391 14.5624 5.99876 14.7164C6.0103 14.8359 6.08028 14.8412 6.42874 14.7488C6.80544 14.6491 6.89071 14.641 6.91793 14.7026C6.92984 14.7295 6.94801 15.0688 6.95831 15.4565C6.97713 16.1642 6.99784 16.3135 7.08164 16.3455C7.19319 16.388 7.28512 16.2467 7.39405 15.8653C7.56376 15.271 7.9855 14.6151 8.29962 14.4569C8.46068 14.3757 8.75358 14.2958 9.11315 14.235L9.39548 14.1871L9.66226 14.7338C10.0052 15.4364 10.0401 15.4758 10.1319 15.2636C10.1737 15.1671 10.1802 15.0838 10.1764 14.6923C10.174 14.4403 10.1821 14.2279 10.1943 14.2204C10.3343 14.1344 10.4811 15.248 10.5695 17.066C10.6636 19.0043 10.7029 21.348 10.7335 26.856C10.7479 29.4459 10.7651 31.6187 10.7716 31.6845C10.7781 31.7504 10.787 31.8969 10.7912 32.0102L10.799 32.2162L6.1932 32.223L1.58739 32.2299L1.49326 32.294C1.11667 32.5505 1.21524 33.0917 1.65823 33.1997C1.74572 33.221 8.35644 33.227 25.8257 33.2216C48.143 33.2148 49.8785 33.2111 49.953 33.1702C50.2952 32.9826 50.328 32.522 50.0145 32.306L49.904 32.2299L31.6793 32.2232L13.4546 32.2165L13.4721 32.0237C13.5233 31.459 13.5433 30.6517 13.5666 28.2128C13.647 19.7861 13.7235 16.423 13.8638 15.1373C13.9201 14.6214 14.0162 14.2062 14.0794 14.2062C14.1446 14.2062 14.1674 14.3832 14.1824 15.0043L14.198 15.656L14.2608 15.523C14.5601 14.8892 14.7829 14.4631 14.8763 14.3458C14.9801 14.2157 14.9957 14.2062 15.1041 14.2062C15.2636 14.2062 15.6835 14.3165 15.9074 14.4172C16.5265 14.6957 16.8418 15.0814 17.0071 15.7625C17.0936 16.1187 17.1547 16.2628 17.2439 16.3209C17.3349 16.3802 17.4181 16.3636 17.4862 16.2727C17.5396 16.2013 17.5428 16.1602 17.5516 15.4536C17.56 14.7759 17.5647 14.7108 17.6051 14.7231C17.6295 14.7305 17.7531 14.7543 17.8797 14.776C18.354 14.8573 18.4162 14.7309 18.121 14.286C17.9027 13.9569 17.4281 13.3878 17.2781 13.2752C17.074 13.1221 16.8697 13.0382 15.9544 12.7315C15.0863 12.4407 14.3334 12.1731 13.7152 11.9356L13.3405 11.7917L13.3477 8.2569C13.3516 6.31275 13.3448 4.2552 13.3326 3.68456L13.3103 2.64703L13.6294 2.32452C13.9298 2.02092 13.9493 1.99461 13.9627 1.87644L13.977 1.7509L13.0963 0.875435L12.2155 0H12.0831H11.9507L11.0867 0.857345ZM3.42462 17.2662C1.67993 17.4761 0.307449 18.6769 0.0349961 20.2318C-0.0281657 20.5923 -0.00228536 21.2595 0.0887641 21.6187C0.264814 22.3131 0.662145 22.9254 1.26028 23.4243C1.73416 23.8195 3.62112 25.0079 5.67275 26.2032C6.45982 26.6618 6.93963 27.2133 7.10867 27.8537C7.17084 28.0892 7.17154 28.5791 7.11001 28.8114C7.0462 29.0522 6.878 29.3794 6.71715 29.5756C6.22266 30.1787 5.31787 30.5198 4.3212 30.4789C2.56043 30.4066 1.44447 29.5844 0.815634 27.896C0.715191 27.6263 0.56114 27.0838 0.506783 26.8084L0.47638 26.6543L0.284459 26.662L0.0925644 26.6698L0.0927785 28C0.0929926 29.3141 0.0937152 29.3319 0.152675 29.4765C0.345158 29.9484 0.911555 30.3363 1.95263 30.7092C3.18474 31.1506 4.25871 31.3494 5.06359 31.2851C6.75253 31.1504 8.04529 30.2957 8.65975 28.9075C9.03567 28.0583 9.01332 26.9212 8.60483 26.1111C8.26499 25.4373 7.67194 24.8193 6.87444 24.3082C6.63247 24.1531 5.48589 23.5001 4.4684 22.9379C3.20784 22.2415 2.55871 21.8248 2.21609 21.4923C2.00792 21.2902 1.77232 20.9215 1.67525 20.646C1.60508 20.4466 1.59493 20.3813 1.59445 20.1254C1.59381 19.7868 1.63968 19.5799 1.77735 19.3007C2.15892 18.5268 3.14684 18.0101 4.12374 18.0734C5.03808 18.1326 5.73825 18.4285 6.34179 19.0106C6.6577 19.3154 6.87398 19.6104 7.08686 20.0272C7.35455 20.5512 7.5355 21.115 7.62861 21.715L7.66059 21.9211H7.87103H8.08147L8.08102 20.7439C8.08048 19.4209 8.07138 19.3319 7.90194 18.9948C7.82711 18.8459 7.74377 18.7379 7.57345 18.5691C7.306 18.3041 7.09224 18.1711 6.48489 17.8917C5.85467 17.6018 5.26525 17.4103 4.66912 17.3018C4.40577 17.2539 3.69603 17.2336 3.42462 17.2662ZM31.678 17.3775C31.6575 17.4256 30.3489 20.4819 28.77 24.1691C27.1912 27.8563 25.8936 30.8881 25.8865 30.9064C25.8764 30.9322 25.978 30.9396 26.3415 30.9396H26.8096L26.9041 30.7202C26.9561 30.5995 27.2417 29.932 27.5386 29.237C28.1455 27.8169 28.1995 27.7029 28.4342 27.3482C28.8728 26.685 29.4809 26.0716 30.1455 25.6219C30.8823 25.1234 31.7301 24.8302 32.637 24.7603L32.744 24.7521L32.5402 24.6543C32.1102 24.448 31.597 24.3561 30.884 24.3576C30.2831 24.3589 29.9872 24.4091 29.6729 24.563C29.5736 24.6117 29.4923 24.6468 29.4923 24.6411C29.4923 24.6353 29.8975 23.7127 30.3927 22.5908C30.8879 21.4689 31.3071 20.5183 31.3242 20.4782C31.353 20.4106 31.4799 20.7021 33.0495 24.4421C33.9813 26.6623 34.8139 28.6225 34.8998 28.7981C35.1381 29.285 35.3456 29.579 35.6994 29.9309C36.2682 30.4965 36.8276 30.7894 37.5615 30.9056C37.8269 30.9476 38.9598 30.9634 39.0208 30.9259C39.0351 30.9171 39.0468 30.8292 39.0468 30.7306V30.5513L38.8254 30.5194C38.3036 30.4445 37.9941 30.3124 37.7052 30.0415C37.3234 29.6834 37.0542 29.1828 36.4001 27.6142C36.1774 27.0802 35.1187 24.5422 34.0473 21.9743L32.0994 17.3055L31.9073 17.2977L31.7153 17.2899L31.678 17.3775ZM39.6356 24.2223V30.913H40.0772H40.5187L40.5255 25.3317L40.5322 19.7503L42.739 24.5269C43.9527 27.1541 45.1138 29.6662 45.3191 30.1095L45.6924 30.9154L45.8552 30.9076L46.0179 30.8997L48.5876 25.3381L51.1573 19.7764L51.173 24.6065C51.1888 29.5064 51.192 29.6584 51.2929 30.4076C51.4074 31.2576 51.6599 31.8632 52.088 32.3145C52.3225 32.5618 52.7863 32.8396 53.1858 32.9723C53.5333 33.0876 54.359 33.2004 54.8586 33.2008L55.0002 33.2009L54.9924 33.0081L54.9845 32.8152L54.8055 32.7976C54.5635 32.7738 54.368 32.7139 54.2135 32.6163C53.7231 32.3066 53.4024 31.7328 53.2455 30.8845C53.1072 30.1373 53.1149 30.5273 53.1052 23.79L53.0961 17.5316L52.1401 17.532L51.1841 17.5323L48.8837 22.5666C47.6185 25.3355 46.546 27.6817 46.5003 27.7804L46.4174 27.9599L43.9845 22.7457L41.5516 17.5316H40.5936H39.6356V24.2223ZM14.5637 17.7378L14.5716 17.9173L15.0534 17.9339C15.6675 17.955 15.8683 18.0114 16.1315 18.2371C16.3285 18.406 16.3882 18.5805 16.4317 19.1145C16.4473 19.3072 16.4578 21.7026 16.458 25.1601L16.4584 30.8864H20.6309H24.8034L24.834 30.8C24.8508 30.7524 25.1065 30.0132 25.4022 29.1572C25.6979 28.3013 25.9455 27.586 25.9525 27.5677C25.962 27.5428 25.9112 27.5344 25.7506 27.5344H25.536L25.3824 27.8204C25.0489 28.4414 24.6947 28.9441 24.3337 29.3089C23.8079 29.8401 23.5033 30.002 22.8579 30.0934C22.5152 30.1419 19.1928 30.1414 18.9283 30.0927C18.6874 30.0484 18.5363 29.9472 18.462 29.7803C18.3759 29.5867 18.3606 29.1168 18.3596 26.6234L18.3587 24.2891L21.0283 24.2823L23.698 24.2755L23.7054 23.9099L23.7129 23.5442L21.0424 23.5374L18.372 23.5306L18.3652 20.9155L18.3584 18.3003L20.6267 18.31C22.8233 18.3194 22.903 18.3215 23.1443 18.3762C23.774 18.5188 24.06 18.7852 24.2936 19.447C24.3584 19.6308 24.4876 20.1123 24.5557 20.4247C24.5669 20.4759 24.5861 20.4845 24.6887 20.4845H24.8087V19.0214V17.5582H19.6822H14.5558L14.5637 17.7378ZM24.9342 34.2923C23.9895 34.4407 23.2065 35.2497 23.0711 36.2173C22.9895 36.8011 23.0971 37.4519 23.3482 37.893C23.6185 38.3677 24.0724 38.7435 24.5812 38.9139C24.779 38.9801 24.8288 38.9856 25.2369 38.9861C25.5937 38.9864 25.7093 38.977 25.8391 38.9368C26.2913 38.797 26.7034 38.4993 27.0018 38.097C27.1711 37.8686 27.2813 37.6459 27.3671 37.3589C27.4622 37.0407 27.4862 36.468 27.4193 36.114C27.2592 35.2668 26.6094 34.5482 25.8084 34.3324C25.6169 34.2808 25.1453 34.2592 24.9342 34.2923ZM15.8696 34.3297C15.4593 34.4159 15.1199 34.5918 14.8176 34.8748C14.5924 35.0857 14.4529 35.2686 14.3197 35.5275C14.1255 35.9049 14.0495 36.2424 14.0502 36.7241C14.0512 37.3944 14.2467 37.907 14.6708 38.3508C15.0979 38.7977 15.6607 39.0054 16.336 38.9653C17.0559 38.9226 17.5626 38.6105 17.9586 37.9659C18.0429 37.8286 18.0445 37.821 17.9968 37.7863C17.9694 37.7664 17.9402 37.7507 17.932 37.7514C17.9238 37.7521 17.8689 37.8197 17.81 37.9017C17.5758 38.2276 17.2717 38.4802 16.9803 38.5906C16.871 38.632 16.7755 38.6413 16.4584 38.6413C16.1154 38.6413 16.0502 38.6339 15.8964 38.5776C15.1976 38.3218 14.8437 37.7581 14.8066 36.8416C14.7821 36.2382 14.878 35.7175 15.0874 35.3169C15.2099 35.0824 15.4807 34.806 15.6823 34.7095C16.2449 34.4405 16.9393 34.5339 17.3373 34.9324C17.5086 35.1039 17.6286 35.3007 17.748 35.6062C17.8152 35.7783 17.8489 35.8335 17.887 35.834C17.9343 35.8346 17.9365 35.8128 17.9256 35.4538C17.9155 35.1169 17.9066 35.0579 17.8487 34.9417C17.7331 34.7099 17.4249 34.5318 16.8817 34.3828C16.5737 34.2984 16.1299 34.2751 15.8696 34.3297ZM20.3927 34.3315C19.5055 34.5094 18.8136 35.2323 18.6148 36.189C18.5566 36.4691 18.5606 36.9563 18.6235 37.2597C18.7912 38.0672 19.349 38.681 20.1132 38.8987C20.4185 38.9857 21.0076 38.9862 21.3109 38.8997C21.8054 38.7587 22.1864 38.4572 22.4788 37.9754C22.5686 37.8274 22.5696 37.8225 22.5189 37.7855C22.4722 37.7513 22.4614 37.754 22.4133 37.8113C22.3839 37.8465 22.2885 37.9614 22.2014 38.0666C22.0158 38.2909 21.754 38.4943 21.5449 38.5769C21.4307 38.622 21.3218 38.6385 21.074 38.6481C20.6777 38.6635 20.5111 38.6319 20.2227 38.4866C19.6537 38.2 19.3668 37.6767 19.3302 36.8589C19.2926 36.0156 19.4842 35.357 19.8842 34.9547C20.1751 34.6621 20.5117 34.5411 20.9681 34.5649C21.6062 34.5982 21.9861 34.8956 22.2652 35.58C22.3317 35.7432 22.3793 35.8244 22.412 35.8306C22.4574 35.8393 22.4595 35.816 22.4468 35.4582C22.4393 35.2482 22.4181 35.0346 22.3996 34.9833C22.3251 34.7768 22.0636 34.5955 21.6372 34.4548C21.1491 34.2937 20.7692 34.2561 20.3927 34.3315ZM43.0688 34.3301C42.6776 34.4187 42.3322 34.6877 42.1718 35.0285C42.025 35.3402 42.0425 35.7693 42.2133 36.0475C42.3742 36.3095 42.611 36.486 43.5699 37.059C44.2938 37.4915 44.4513 37.6552 44.4523 37.9762C44.453 38.1756 44.4073 38.3016 44.2876 38.4307C44.1234 38.6078 43.9292 38.6886 43.6352 38.7024C42.8901 38.7372 42.4779 38.3903 42.2589 37.5439C42.2344 37.4494 42.2188 37.4309 42.1637 37.4309H42.0979V37.8844C42.0979 38.3753 42.1084 38.4215 42.2494 38.552C42.4641 38.7506 43.2436 39.0012 43.643 39C44.1899 38.9983 44.6885 38.7192 44.9172 38.2867C45.2123 37.7285 45.0413 37.1318 44.4708 36.7283C44.3801 36.6642 44.065 36.4769 43.7706 36.3122C43.067 35.9184 42.9272 35.8291 42.8008 35.6928C42.4498 35.3144 42.6045 34.8023 43.1225 34.6275C43.4717 34.5097 43.9536 34.6439 44.2278 34.9352C44.4026 35.121 44.6137 35.6015 44.6137 35.8136C44.6137 35.8488 44.6346 35.8613 44.6939 35.8613H44.7742L44.7736 35.4423C44.773 34.9735 44.7492 34.8819 44.5876 34.7257C44.4833 34.6248 44.1388 34.4536 43.8777 34.3728C43.6378 34.2986 43.2888 34.2802 43.0688 34.3301ZM10.2677 36.5463C9.74351 37.7717 9.30686 38.7953 9.29736 38.8209C9.28214 38.8619 9.29897 38.8674 9.43961 38.8674H9.59912L9.81952 38.3491C10.065 37.7719 10.1815 37.5738 10.4078 37.3489C10.6893 37.069 11.0074 36.9016 11.3868 36.8335L11.5741 36.7999L11.476 36.7568C11.2427 36.6543 10.7895 36.6387 10.5795 36.726L10.4925 36.7621L10.5598 36.611C10.5968 36.5278 10.7308 36.2234 10.8577 35.9344C10.9845 35.6455 11.0961 35.409 11.1056 35.409C11.1151 35.409 11.362 35.9806 11.6543 36.6793C12.2912 38.2015 12.3503 38.3241 12.545 38.527C12.7966 38.7893 13.1735 38.9231 13.5345 38.8786C13.6582 38.8634 13.675 38.854 13.675 38.8002C13.675 38.749 13.6566 38.736 13.5613 38.7203C13.4063 38.6946 13.2683 38.621 13.1787 38.5161C13.0615 38.3789 12.8802 37.972 12.0936 36.0807C11.3882 34.3847 11.3579 34.3183 11.2907 34.3183C11.2235 34.3183 11.184 34.4043 10.2677 36.5463ZM38.0381 34.3993C37.8982 34.4268 37.8063 34.4854 37.7663 34.5726C37.7474 34.6139 37.7354 34.7939 37.7354 35.0378V35.4356H37.7986C37.8538 35.4356 37.8656 35.4171 37.8911 35.2907C37.9462 35.0179 38.1031 34.788 38.2841 34.7148C38.3309 34.6959 38.5511 34.6773 38.8127 34.6702L39.261 34.658V36.7627V38.8674H39.5955H39.93V36.7658V34.6641H40.2989C40.7145 34.6641 40.8913 34.6982 41.0532 34.8098C41.1783 34.896 41.2894 35.0995 41.3171 35.2933C41.3333 35.4066 41.344 35.4233 41.4047 35.4303L41.4739 35.4383L41.4908 35.0978C41.516 34.5857 41.4776 34.4835 41.2322 34.4111C41.1198 34.3779 40.8581 34.372 39.6241 34.3744C38.8135 34.376 38.0998 34.3872 38.0381 34.3993ZM27.7526 34.4646C27.7526 34.5268 27.7617 34.5312 27.8932 34.5331C28.1423 34.5368 28.2358 34.5807 28.3133 34.7303L28.3816 34.8621L28.398 36.2861C28.4158 37.8342 28.4198 37.8769 28.5758 38.1977C28.6776 38.407 28.956 38.6793 29.1734 38.7822C29.4552 38.9156 29.7217 38.9552 30.2379 38.9407C30.7746 38.9256 30.9434 38.881 31.2528 38.6722C31.5995 38.4383 31.7566 38.1818 31.85 37.6969C31.8667 37.6106 31.8841 36.9044 31.8925 35.9743L31.9068 34.3981H31.7454H31.584L31.5734 35.961C31.5619 37.6624 31.5477 37.8417 31.4044 38.0867C31.2676 38.3206 30.8957 38.5621 30.5683 38.6296C30.3408 38.6766 29.886 38.6494 29.701 38.5778C29.5019 38.5007 29.2989 38.3176 29.2133 38.1376C29.0669 37.8302 29.0539 37.6621 29.0478 36.0124C29.0428 34.6151 29.0388 34.497 28.9955 34.4495C28.9519 34.4016 28.9078 34.3981 28.3507 34.3981H27.7526V34.4646ZM36.4443 36.0492L36.4374 37.7003L35.2231 36.2081C34.5552 35.3873 33.9654 34.6803 33.9125 34.6369C33.6913 34.4557 33.6242 34.4394 33.0564 34.4296L32.5391 34.4206L32.5479 34.4808C32.5555 34.5332 32.5812 34.5452 32.7448 34.5725C33.147 34.6396 33.3367 34.8215 33.3984 35.1993C33.4155 35.304 33.4262 36.0399 33.4263 37.1183L33.4265 38.8674H33.5735H33.7205L33.7274 37.1317L33.7343 35.396L35.1795 37.1705C36.4502 38.7308 36.6336 38.9452 36.6983 38.9462L36.7719 38.9472V36.6727V34.3981H36.6116H36.4512L36.4443 36.0492ZM25.7186 34.6072C26.1494 34.7725 26.4568 35.1992 26.6093 35.8434C26.6599 36.0571 26.667 36.1634 26.6662 36.6993C26.6653 37.275 26.6611 37.3265 26.5948 37.5711C26.4983 37.9269 26.3795 38.1549 26.1819 38.3633C25.8968 38.6639 25.4932 38.8012 25.0734 38.7404C24.3231 38.6317 23.8828 37.9479 23.8277 36.8057C23.7707 35.6245 24.1769 34.7694 24.889 34.5721C25.0982 34.5141 25.5228 34.5321 25.7186 34.6072ZM25.1081 36.3761C24.9448 36.4662 24.8961 36.6804 25.0089 36.8135C25.2059 37.0462 25.5313 36.9381 25.5313 36.6398C25.5313 36.4163 25.2984 36.2712 25.1081 36.3761Z" fill="black"/>
<path fill-rule="evenodd" clip-rule="evenodd" d="M11.0867 0.857345C10.1879 1.74919 10.1597 1.78426 10.21 1.94638C10.2206 1.98056 10.3716 2.15221 10.5455 2.32779L10.8618 2.64703L10.8895 5.04133C10.9048 6.35819 10.9254 8.41729 10.9353 9.6171L10.9533 11.7986L10.7953 11.8563C10.7085 11.888 10.38 12.011 10.0655 12.1297C9.75098 12.2483 9.03034 12.501 8.46414 12.6912C7.11004 13.1462 7.05512 13.1747 6.68749 13.6142C6.24844 14.139 5.98391 14.5624 5.99876 14.7164C6.0103 14.8359 6.08028 14.8412 6.42874 14.7488C6.80544 14.6491 6.89071 14.641 6.91793 14.7026C6.92984 14.7295 6.94801 15.0688 6.95831 15.4565C6.97713 16.1642 6.99784 16.3135 7.08164 16.3455C7.19319 16.388 7.28512 16.2467 7.39405 15.8653C7.56376 15.271 7.9855 14.6151 8.29962 14.4569C8.46068 14.3757 8.75358 14.2958 9.11315 14.235L9.39548 14.1871L9.66226 14.7338C10.0052 15.4364 10.0401 15.4758 10.1319 15.2636C10.1737 15.1671 10.1802 15.0838 10.1764 14.6923C10.174 14.4403 10.1821 14.2279 10.1943 14.2204C10.3343 14.1344 10.4811 15.248 10.5695 17.066C10.6636 19.0043 10.7029 21.348 10.7335 26.856C10.7479 29.4459 10.7651 31.6187 10.7716 31.6845C10.7781 31.7504 10.787 31.8969 10.7912 32.0102L10.799 32.2162L6.1932 32.223L1.58739 32.2299L1.49326 32.294C1.11667 32.5505 1.21524 33.0917 1.65823 33.1997C1.74572 33.221 8.35644 33.227 25.8257 33.2216C48.143 33.2148 49.8785 33.2111 49.953 33.1702C50.2952 32.9826 50.328 32.522 50.0145 32.306L49.904 32.2299L31.6793 32.2232L13.4546 32.2165L13.4721 32.0237C13.5233 31.459 13.5433 30.6517 13.5666 28.2128C13.647 19.7861 13.7235 16.423 13.8638 15.1373C13.9201 14.6214 14.0162 14.2062 14.0794 14.2062C14.1446 14.2062 14.1674 14.3832 14.1824 15.0043L14.198 15.656L14.2608 15.523C14.5601 14.8892 14.7829 14.4631 14.8763 14.3458C14.9801 14.2157 14.9957 14.2062 15.1041 14.2062C15.2636 14.2062 15.6835 14.3165 15.9074 14.4172C16.5265 14.6957 16.8418 15.0814 17.0071 15.7625C17.0936 16.1187 17.1547 16.2628 17.2439 16.3209C17.3349 16.3802 17.4181 16.3636 17.4862 16.2727C17.5396 16.2013 17.5428 16.1602 17.5516 15.4536C17.56 14.7759 17.5647 14.7108 17.6051 14.7231C17.6295 14.7305 17.7531 14.7543 17.8797 14.776C18.354 14.8573 18.4162 14.7309 18.121 14.286C17.9027 13.9569 17.4281 13.3878 17.2781 13.2752C17.074 13.1221 16.8697 13.0382 15.9544 12.7315C15.0863 12.4407 14.3334 12.1731 13.7152 11.9356L13.3405 11.7917L13.3477 8.2569C13.3516 6.31275 13.3448 4.2552 13.3326 3.68456L13.3103 2.64703L13.6294 2.32452C13.9298 2.02092 13.9493 1.99461 13.9627 1.87644L13.977 1.7509L13.0963 0.875435L12.2155 0H12.0831H11.9507L11.0867 0.857345ZM3.42462 17.2662C1.67993 17.4761 0.307449 18.6769 0.0349961 20.2318C-0.0281657 20.5923 -0.00228536 21.2595 0.0887641 21.6187C0.264814 22.3131 0.662145 22.9254 1.26028 23.4243C1.73416 23.8195 3.62112 25.0079 5.67275 26.2032C6.45982 26.6618 6.93963 27.2133 7.10867 27.8537C7.17084 28.0892 7.17154 28.5791 7.11001 28.8114C7.0462 29.0522 6.878 29.3794 6.71715 29.5756C6.22266 30.1787 5.31787 30.5198 4.3212 30.4789C2.56043 30.4066 1.44447 29.5844 0.815634 27.896C0.715191 27.6263 0.56114 27.0838 0.506783 26.8084L0.47638 26.6543L0.284459 26.662L0.0925644 26.6698L0.0927785 28C0.0929926 29.3141 0.0937152 29.3319 0.152675 29.4765C0.345158 29.9484 0.911555 30.3363 1.95263 30.7092C3.18474 31.1506 4.25871 31.3494 5.06359 31.2851C6.75253 31.1504 8.04529 30.2957 8.65975 28.9075C9.03567 28.0583 9.01332 26.9212 8.60483 26.1111C8.26499 25.4373 7.67194 24.8193 6.87444 24.3082C6.63247 24.1531 5.48589 23.5001 4.4684 22.9379C3.20784 22.2415 2.55871 21.8248 2.21609 21.4923C2.00792 21.2902 1.77232 20.9215 1.67525 20.646C1.60508 20.4466 1.59493 20.3813 1.59445 20.1254C1.59381 19.7868 1.63968 19.5799 1.77735 19.3007C2.15892 18.5268 3.14684 18.0101 4.12374 18.0734C5.03808 18.1326 5.73825 18.4285 6.34179 19.0106C6.6577 19.3154 6.87398 19.6104 7.08686 20.0272C7.35455 20.5512 7.5355 21.115 7.62861 21.715L7.66059 21.9211H7.87103H8.08147L8.08102 20.7439C8.08048 19.4209 8.07138 19.3319 7.90194 18.9948C7.82711 18.8459 7.74377 18.7379 7.57345 18.5691C7.306 18.3041 7.09224 18.1711 6.48489 17.8917C5.85467 17.6018 5.26525 17.4103 4.66912 17.3018C4.40577 17.2539 3.69603 17.2336 3.42462 17.2662ZM31.678 17.3775C31.6575 17.4256 30.3489 20.4819 28.77 24.1691C27.1912 27.8563 25.8936 30.8881 25.8865 30.9064C25.8764 30.9322 25.978 30.9396 26.3415 30.9396H26.8096L26.9041 30.7202C26.9561 30.5995 27.2417 29.932 27.5386 29.237C28.1455 27.8169 28.1995 27.7029 28.4342 27.3482C28.8728 26.685 29.4809 26.0716 30.1455 25.6219C30.8823 25.1234 31.7301 24.8302 32.637 24.7603L32.744 24.7521L32.5402 24.6543C32.1102 24.448 31.597 24.3561 30.884 24.3576C30.2831 24.3589 29.9872 24.4091 29.6729 24.563C29.5736 24.6117 29.4923 24.6468 29.4923 24.6411C29.4923 24.6353 29.8975 23.7127 30.3927 22.5908C30.8879 21.4689 31.3071 20.5183 31.3242 20.4782C31.353 20.4106 31.4799 20.7021 33.0495 24.4421C33.9813 26.6623 34.8139 28.6225 34.8998 28.7981C35.1381 29.285 35.3456 29.579 35.6994 29.9309C36.2682 30.4965 36.8276 30.7894 37.5615 30.9056C37.8269 30.9476 38.9598 30.9634 39.0208 30.9259C39.0351 30.9171 39.0468 30.8292 39.0468 30.7306V30.5513L38.8254 30.5194C38.3036 30.4445 37.9941 30.3124 37.7052 30.0415C37.3234 29.6834 37.0542 29.1828 36.4001 27.6142C36.1774 27.0802 35.1187 24.5422 34.0473 21.9743L32.0994 17.3055L31.9073 17.2977L31.7153 17.2899L31.678 17.3775ZM39.6356 24.2223V30.913H40.0772H40.5187L40.5255 25.3317L40.5322 19.7503L42.739 24.5269C43.9527 27.1541 45.1138 29.6662 45.3191 30.1095L45.6924 30.9154L45.8552 30.9076L46.0179 30.8997L48.5876 25.3381L51.1573 19.7764L51.173 24.6065C51.1888 29.5064 51.192 29.6584 51.2929 30.4076C51.4074 31.2576 51.6599 31.8632 52.088 32.3145C52.3225 32.5618 52.7863 32.8396 53.1858 32.9723C53.5333 33.0876 54.359 33.2004 54.8586 33.2008L55.0002 33.2009L54.9924 33.0081L54.9845 32.8152L54.8055 32.7976C54.5635 32.7738 54.368 32.7139 54.2135 32.6163C53.7231 32.3066 53.4024 31.7328 53.2455 30.8845C53.1072 30.1373 53.1149 30.5273 53.1052 23.79L53.0961 17.5316L52.1401 17.532L51.1841 17.5323L48.8837 22.5666C47.6185 25.3355 46.546 27.6817 46.5003 27.7804L46.4174 27.9599L43.9845 22.7457L41.5516 17.5316H40.5936H39.6356V24.2223ZM14.5637 17.7378L14.5716 17.9173L15.0534 17.9339C15.6675 17.955 15.8683 18.0114 16.1315 18.2371C16.3285 18.406 16.3882 18.5805 16.4317 19.1145C16.4473 19.3072 16.4578 21.7026 16.458 25.1601L16.4584 30.8864H20.6309H24.8034L24.834 30.8C24.8508 30.7524 25.1065 30.0132 25.4022 29.1572C25.6979 28.3013 25.9455 27.586 25.9525 27.5677C25.962 27.5428 25.9112 27.5344 25.7506 27.5344H25.536L25.3824 27.8204C25.0489 28.4414 24.6947 28.9441 24.3337 29.3089C23.8079 29.8401 23.5033 30.002 22.8579 30.0934C22.5152 30.1419 19.1928 30.1414 18.9283 30.0927C18.6874 30.0484 18.5363 29.9472 18.462 29.7803C18.3759 29.5867 18.3606 29.1168 18.3596 26.6234L18.3587 24.2891L21.0283 24.2823L23.698 24.2755L23.7054 23.9099L23.7129 23.5442L21.0424 23.5374L18.372 23.5306L18.3652 20.9155L18.3584 18.3003L20.6267 18.31C22.8233 18.3194 22.903 18.3215 23.1443 18.3762C23.774 18.5188 24.06 18.7852 24.2936 19.447C24.3584 19.6308 24.4876 20.1123 24.5557 20.4247C24.5669 20.4759 24.5861 20.4845 24.6887 20.4845H24.8087V19.0214V17.5582H19.6822H14.5558L14.5637 17.7378ZM24.9342 34.2923C23.9895 34.4407 23.2065 35.2497 23.0711 36.2173C22.9895 36.8011 23.0971 37.4519 23.3482 37.893C23.6185 38.3677 24.0724 38.7435 24.5812 38.9139C24.779 38.9801 24.8288 38.9856 25.2369 38.9861C25.5937 38.9864 25.7093 38.977 25.8391 38.9368C26.2913 38.797 26.7034 38.4993 27.0018 38.097C27.1711 37.8686 27.2813 37.6459 27.3671 37.3589C27.4622 37.0407 27.4862 36.468 27.4193 36.114C27.2592 35.2668 26.6094 34.5482 25.8084 34.3324C25.6169 34.2808 25.1453 34.2592 24.9342 34.2923ZM15.8696 34.3297C15.4593 34.4159 15.1199 34.5918 14.8176 34.8748C14.5924 35.0857 14.4529 35.2686 14.3197 35.5275C14.1255 35.9049 14.0495 36.2424 14.0502 36.7241C14.0512 37.3944 14.2467 37.907 14.6708 38.3508C15.0979 38.7977 15.6607 39.0054 16.336 38.9653C17.0559 38.9226 17.5626 38.6105 17.9586 37.9659C18.0429 37.8286 18.0445 37.821 17.9968 37.7863C17.9694 37.7664 17.9402 37.7507 17.932 37.7514C17.9238 37.7521 17.8689 37.8197 17.81 37.9017C17.5758 38.2276 17.2717 38.4802 16.9803 38.5906C16.871 38.632 16.7755 38.6413 16.4584 38.6413C16.1154 38.6413 16.0502 38.6339 15.8964 38.5776C15.1976 38.3218 14.8437 37.7581 14.8066 36.8416C14.7821 36.2382 14.878 35.7175 15.0874 35.3169C15.2099 35.0824 15.4807 34.806 15.6823 34.7095C16.2449 34.4405 16.9393 34.5339 17.3373 34.9324C17.5086 35.1039 17.6286 35.3007 17.748 35.6062C17.8152 35.7783 17.8489 35.8335 17.887 35.834C17.9343 35.8346 17.9365 35.8128 17.9256 35.4538C17.9155 35.1169 17.9066 35.0579 17.8487 34.9417C17.7331 34.7099 17.4249 34.5318 16.8817 34.3828C16.5737 34.2984 16.1299 34.2751 15.8696 34.3297ZM20.3927 34.3315C19.5055 34.5094 18.8136 35.2323 18.6148 36.189C18.5566 36.4691 18.5606 36.9563 18.6235 37.2597C18.7912 38.0672 19.349 38.681 20.1132 38.8987C20.4185 38.9857 21.0076 38.9862 21.3109 38.8997C21.8054 38.7587 22.1864 38.4572 22.4788 37.9754C22.5686 37.8274 22.5696 37.8225 22.5189 37.7855C22.4722 37.7513 22.4614 37.754 22.4133 37.8113C22.3839 37.8465 22.2885 37.9614 22.2014 38.0666C22.0158 38.2909 21.754 38.4943 21.5449 38.5769C21.4307 38.622 21.3218 38.6385 21.074 38.6481C20.6777 38.6635 20.5111 38.6319 20.2227 38.4866C19.6537 38.2 19.3668 37.6767 19.3302 36.8589C19.2926 36.0156 19.4842 35.357 19.8842 34.9547C20.1751 34.6621 20.5117 34.5411 20.9681 34.5649C21.6062 34.5982 21.9861 34.8956 22.2652 35.58C22.3317 35.7432 22.3793 35.8244 22.412 35.8306C22.4574 35.8393 22.4595 35.816 22.4468 35.4582C22.4393 35.2482 22.4181 35.0346 22.3996 34.9833C22.3251 34.7768 22.0636 34.5955 21.6372 34.4548C21.1491 34.2937 20.7692 34.2561 20.3927 34.3315ZM43.0688 34.3301C42.6776 34.4187 42.3322 34.6877 42.1718 35.0285C42.025 35.3402 42.0425 35.7693 42.2133 36.0475C42.3742 36.3095 42.611 36.486 43.5699 37.059C44.2938 37.4915 44.4513 37.6552 44.4523 37.9762C44.453 38.1756 44.4073 38.3016 44.2876 38.4307C44.1234 38.6078 43.9292 38.6886 43.6352 38.7024C42.8901 38.7372 42.4779 38.3903 42.2589 37.5439C42.2344 37.4494 42.2188 37.4309 42.1637 37.4309H42.0979V37.8844C42.0979 38.3753 42.1084 38.4215 42.2494 38.552C42.4641 38.7506 43.2436 39.0012 43.643 39C44.1899 38.9983 44.6885 38.7192 44.9172 38.2867C45.2123 37.7285 45.0413 37.1318 44.4708 36.7283C44.3801 36.6642 44.065 36.4769 43.7706 36.3122C43.067 35.9184 42.9272 35.8291 42.8008 35.6928C42.4498 35.3144 42.6045 34.8023 43.1225 34.6275C43.4717 34.5097 43.9536 34.6439 44.2278 34.9352C44.4026 35.121 44.6137 35.6015 44.6137 35.8136C44.6137 35.8488 44.6346 35.8613 44.6939 35.8613H44.7742L44.7736 35.4423C44.773 34.9735 44.7492 34.8819 44.5876 34.7257C44.4833 34.6248 44.1388 34.4536 43.8777 34.3728C43.6378 34.2986 43.2888 34.2802 43.0688 34.3301ZM10.2677 36.5463C9.74351 37.7717 9.30686 38.7953 9.29736 38.8209C9.28214 38.8619 9.29897 38.8674 9.43961 38.8674H9.59912L9.81952 38.3491C10.065 37.7719 10.1815 37.5738 10.4078 37.3489C10.6893 37.069 11.0074 36.9016 11.3868 36.8335L11.5741 36.7999L11.476 36.7568C11.2427 36.6543 10.7895 36.6387 10.5795 36.726L10.4925 36.7621L10.5598 36.611C10.5968 36.5278 10.7308 36.2234 10.8577 35.9344C10.9845 35.6455 11.0961 35.409 11.1056 35.409C11.1151 35.409 11.362 35.9806 11.6543 36.6793C12.2912 38.2015 12.3503 38.3241 12.545 38.527C12.7966 38.7893 13.1735 38.9231 13.5345 38.8786C13.6582 38.8634 13.675 38.854 13.675 38.8002C13.675 38.749 13.6566 38.736 13.5613 38.7203C13.4063 38.6946 13.2683 38.621 13.1787 38.5161C13.0615 38.3789 12.8802 37.972 12.0936 36.0807C11.3882 34.3847 11.3579 34.3183 11.2907 34.3183C11.2235 34.3183 11.184 34.4043 10.2677 36.5463ZM38.0381 34.3993C37.8982 34.4268 37.8063 34.4854 37.7663 34.5726C37.7474 34.6139 37.7354 34.7939 37.7354 35.0378V35.4356H37.7986C37.8538 35.4356 37.8656 35.4171 37.8911 35.2907C37.9462 35.0179 38.1031 34.788 38.2841 34.7148C38.3309 34.6959 38.5511 34.6773 38.8127 34.6702L39.261 34.658V36.7627V38.8674H39.5955H39.93V36.7658V34.6641H40.2989C40.7145 34.6641 40.8913 34.6982 41.0532 34.8098C41.1783 34.896 41.2894 35.0995 41.3171 35.2933C41.3333 35.4066 41.344 35.4233 41.4047 35.4303L41.4739 35.4383L41.4908 35.0978C41.516 34.5857 41.4776 34.4835 41.2322 34.4111C41.1198 34.3779 40.8581 34.372 39.6241 34.3744C38.8135 34.376 38.0998 34.3872 38.0381 34.3993ZM27.7526 34.4646C27.7526 34.5268 27.7617 34.5312 27.8932 34.5331C28.1423 34.5368 28.2358 34.5807 28.3133 34.7303L28.3816 34.8621L28.398 36.2861C28.4158 37.8342 28.4198 37.8769 28.5758 38.1977C28.6776 38.407 28.956 38.6793 29.1734 38.7822C29.4552 38.9156 29.7217 38.9552 30.2379 38.9407C30.7746 38.9256 30.9434 38.881 31.2528 38.6722C31.5995 38.4383 31.7566 38.1818 31.85 37.6969C31.8667 37.6106 31.8841 36.9044 31.8925 35.9743L31.9068 34.3981H31.7454H31.584L31.5734 35.961C31.5619 37.6624 31.5477 37.8417 31.4044 38.0867C31.2676 38.3206 30.8957 38.5621 30.5683 38.6296C30.3408 38.6766 29.886 38.6494 29.701 38.5778C29.5019 38.5007 29.2989 38.3176 29.2133 38.1376C29.0669 37.8302 29.0539 37.6621 29.0478 36.0124C29.0428 34.6151 29.0388 34.497 28.9955 34.4495C28.9519 34.4016 28.9078 34.3981 28.3507 34.3981H27.7526V34.4646ZM36.4443 36.0492L36.4374 37.7003L35.2231 36.2081C34.5552 35.3873 33.9654 34.6803 33.9125 34.6369C33.6913 34.4557 33.6242 34.4394 33.0564 34.4296L32.5391 34.4206L32.5479 34.4808C32.5555 34.5332 32.5812 34.5452 32.7448 34.5725C33.147 34.6396 33.3367 34.8215 33.3984 35.1993C33.4155 35.304 33.4262 36.0399 33.4263 37.1183L33.4265 38.8674H33.5735H33.7205L33.7274 37.1317L33.7343 35.396L35.1795 37.1705C36.4502 38.7308 36.6336 38.9452 36.6983 38.9462L36.7719 38.9472V36.6727V34.3981H36.6116H36.4512L36.4443 36.0492ZM25.7186 34.6072C26.1494 34.7725 26.4568 35.1992 26.6093 35.8434C26.6599 36.0571 26.667 36.1634 26.6662 36.6993C26.6653 37.275 26.6611 37.3265 26.5948 37.5711C26.4983 37.9269 26.3795 38.1549 26.1819 38.3633C25.8968 38.6639 25.4932 38.8012 25.0734 38.7404C24.3231 38.6317 23.8828 37.9479 23.8277 36.8057C23.7707 35.6245 24.1769 34.7694 24.889 34.5721C25.0982 34.5141 25.5228 34.5321 25.7186 34.6072ZM25.1081 36.3761C24.9448 36.4662 24.8961 36.6804 25.0089 36.8135C25.2059 37.0462 25.5313 36.9381 25.5313 36.6398C25.5313 36.4163 25.2984 36.2712 25.1081 36.3761Z" fill="url(#paint0_linear_2_716)"/>
<defs>
<linearGradient id="paint0_linear_2_716" x1="27.5002" y1="0" x2="27.5002" y2="39" gradientUnits="userSpaceOnUse">
<stop stop-color="#216933"/>
<stop offset="1" stop-color="#E9EC42"/>
</linearGradient>
</defs>
</svg>
